<svg width="684" height="660" viewBox="0 0 684 660" fill="none" xmlns="http://www.w3.org/2000/svg">
<path d="M283.379 279.239C273.18 273.351 250.991 276.677 233.792 286.671L233.788 286.673C216.6 296.662 210.922 309.532 221.12 315.42C231.31 321.302 253.51 317.972 270.7 307.981C287.9 297.986 293.569 285.122 283.379 279.239Z" fill="#D3D3D3"/>
<path d="M199.977 311.624C202.703 312.408 205.111 314.89 207.183 316.257C209.898 318.048 213.035 319.194 216.265 319.574C217.187 319.682 218.215 319.699 218.93 319.107C219.843 318.349 219.82 316.87 219.211 315.853C218.602 314.835 217.562 314.165 216.568 313.518C213.469 311.5 210.433 306.426 209.697 302.802C208.978 299.269 204.009 297.431 201.074 301.317C200.406 302.199 199.475 311.479 199.977 311.624Z" fill="#1C5C68"/>
<path d="M223.99 296.437C224.845 297.291 229.075 299.116 231.146 300.483C233.862 302.273 236.999 303.419 240.228 303.799C241.15 303.907 242.179 303.924 242.893 303.332C243.807 302.575 243.783 301.096 243.174 300.078C242.564 299.061 241.526 298.39 240.531 297.744C237.432 295.726 234.309 292.513 232.813 289.13C231.884 287.029 228.1 283.949 225.196 287.859C224.389 288.947 223.62 296.068 223.99 296.437Z" fill="#1C5C68"/>
<path d="M201.986 302.093C203.728 304.975 208.32 305.236 208.39 302.8C208.553 297.113 211.493 268.035 212.663 259.77C214.183 249.037 217.085 231.212 216.058 230.289C215.211 229.527 199.979 226.688 199.749 227.804C198.27 234.951 200.919 247.48 200.578 256.551C200.008 271.708 198.547 284.785 201.986 302.093Z" fill="#FFCFA9"/>
<path d="M225.686 289.786C227.803 292.109 230.646 291.789 231.733 289.608C232.819 287.427 231.306 266.006 231.622 257.666C232.032 246.832 234.832 235.925 232.805 225.275C232.546 223.919 216.65 222.208 216.271 223.283C215.202 226.32 221.772 237.651 221.595 246.727C221.356 258.972 221.839 275.386 225.686 289.786Z" fill="#FFCFA9"/>
<path d="M195.152 232.254C196.604 236.721 209.838 240.095 222.659 239.222C230.529 238.686 239.023 234.219 239.023 229.415C239.023 228.257 234.154 202.141 232.672 190.087C222.327 191.379 210.1 194.239 200.141 191.152C201.465 191.562 194.5 230.248 195.152 232.254Z" fill="#715EDA"/>
<path d="M224.99 127.91C231.196 147.939 231.393 166.28 231.727 187.246C231.764 189.585 231.706 192.112 230.301 193.983C228.96 195.768 226.685 196.555 224.509 197.056C216.59 198.882 208.104 198.152 200.613 195C202.175 190.126 201.791 184.871 201.391 179.768C200.76 171.706 200.128 163.644 199.497 155.583C199.136 150.976 198.764 146.312 197.285 141.934C196.483 139.561 196.368 135.143 197.055 132.735C199.221 125.146 218.339 125.807 224.99 127.91Z" fill="#E6E6E6"/>
<path d="M191.757 136.895C191.173 139.436 191.773 142.08 192.31 144.631C194.284 153.999 199.051 164.081 199.358 173.649C199.621 181.882 195.641 189.592 194.66 197.771C198.934 199.797 215.724 202.845 216.009 202.057C219.761 191.649 220.255 171.705 218.338 157.21C217.616 151.746 217.343 147.606 214.222 143.065C212.438 140.468 210.135 138.254 208.4 135.624C206.61 132.908 206.281 129.948 205.773 127.032C200.354 127.796 193.113 130.997 191.757 136.895Z" fill="#FF8CA1"/>
<path d="M245.721 193.848C245.283 193.798 242.747 195.87 241.787 196.52C242.714 200.68 243.192 199.765 244.655 203.769C247.039 210.297 250.765 206.348 250.366 204.348C250.052 203.021 248.963 201.652 248.649 200.325C249.733 200.859 251.745 202.218 251.029 199.659L245.721 193.848Z" fill="#FFCFA9"/>
<path d="M234.818 136.844C236.551 144.013 235.483 155.012 236.783 163.54C238.502 174.808 243.408 184.607 247.576 195.216C245.922 197.509 242.382 198.734 241.428 198.04C239.143 196.377 231.824 177.099 231.11 174.364C226.704 157.506 228.146 150.229 224.99 133.091C223.357 124.202 232.749 128.286 234.818 136.844Z" fill="#F77F99"/>
<path d="M233.66 150.065C231.75 161.493 232.682 165.61 233.66 177.045C233.745 178.031 235.461 194.929 235.039 195.826C233.686 198.695 230.127 199.704 226.956 199.737C228.519 179.638 223.406 147.041 220.919 127.036C219.148 126.609 223.423 127.912 226 127.912C229.457 127.91 234.472 145.216 233.66 150.065Z" fill="#FF8CA1"/>
<path d="M217.827 116.666C214.436 115.504 210.633 115.589 207.298 116.904L206.812 127.139C206.134 127.963 210.865 130.052 212.662 130.054C216.008 130.057 216.162 129.114 217.13 128.597C219.08 127.556 218.763 118.667 217.827 116.666Z" fill="#F9BF98"/>
<path d="M215.234 120.763C224.002 120.763 231.11 113.084 231.11 103.611C231.11 94.1381 224.002 86.459 215.234 86.459C206.467 86.459 199.359 94.1381 199.359 103.611C199.359 113.084 206.467 120.763 215.234 120.763Z" fill="#FFCFA9"/>
<path d="M197.031 78.0601C192.248 78.5064 186.373 83.0891 186.721 94.1932C186.813 97.139 186.373 104.682 180 104.692C182.614 108.45 190.962 110.2 194.055 106.826C196.06 104.638 197.318 102.75 198.522 100.037C199.726 97.3238 197.808 85.5639 201.007 88.8025C201.736 89.5403 204.326 93.4893 205.351 93.6519C206.851 93.8901 208.46 93.0859 209.171 91.7431C211.988 86.424 206.607 77.1675 197.031 78.0601Z" fill="#CC1343"/>
<path d="M200.509 87.755C201.024 85.3869 202.812 83.0904 206.054 82.1262C207.49 81.7007 208.512 82.7417 209.741 83.5978C211.376 84.7376 203.565 90.7724 203.193 90.9832C200.816 92.3221 200.074 89.7484 200.509 87.755Z" fill="#FCD500"/>
<path d="M215.737 126.304C215.216 125.729 214.599 125.197 214.347 124.459C214.176 123.96 214.193 123.417 214.223 122.889C214.359 120.497 214.723 118.119 215.31 115.799C215.964 115.418 216.839 115.921 217.144 116.622C217.449 117.322 217.35 118.128 217.248 118.888C217.148 119.648 217.059 120.456 217.381 121.149C218.086 122.664 220.267 122.778 221.295 124.09C221.84 124.786 221.978 125.733 221.918 126.621C221.834 127.862 221.395 129.077 220.669 130.08C220.241 130.671 219.658 131.216 218.941 131.3C217.39 131.478 216.729 127.403 215.737 126.304Z" fill="#FFDBC2"/>
<path d="M202.537 103.654C203.348 100.751 206.518 102.052 207.483 103.61C207.441 100.354 209.864 98.8098 212.862 97.5412C215.86 96.2725 219.23 96.2817 222.48 96.4534C226.056 96.6421 229.601 98.8918 231.048 102.168C233.007 95.5699 229.491 89.0108 224.467 85.9504C218.401 82.2538 210.226 82.0392 204.252 85.8854C198.28 89.7303 196.415 97.3655 197.203 104.426C197.809 109.863 201.025 113.616 203.102 114.668C204.624 115.44 205.777 112.901 206.609 110.221C203.704 109.328 201.865 106.061 202.537 103.654Z" fill="#CC1343"/>
<path d="M201.405 158.463C204.677 160.205 210.901 161.872 214.136 160.061C216.248 158.878 217.727 156.723 218.542 154.445C224.454 137.916 222.376 127.787 221.998 127.749C220.052 127.56 218.106 127.372 216.161 127.183C214.339 133.656 211.393 146.634 209.944 148.279C208.494 149.923 204.826 144.379 203.193 142.919C199.144 139.299 195.546 127.103 190.329 136.844C186.264 144.432 195.865 155.51 201.405 158.463Z" fill="#F77F99"/>
<path d="M351.926 100.452L391.993 77.3776C394.538 75.8994 394.524 73.5092 391.975 72.0376L363.9 55.8278C361.35 54.3548 357.225 54.3548 354.68 55.8343L314.612 78.909C312.079 80.3819 312.092 82.7709 314.642 84.2425L342.717 100.451C345.266 101.924 349.392 101.924 351.926 100.452Z" fill="#D3D3D3"/>
<path d="M351.315 86.4388L332.974 75.7797C332.228 75.3464 331.765 74.4252 331.761 73.1162L350.102 83.7753C350.106 85.083 350.569 86.0042 351.315 86.4388Z" fill="#715EDA"/>
<path d="M369.785 12.0972L388.126 22.7563C387.372 22.3178 386.325 22.3789 385.171 23.0451L366.83 12.386C367.983 11.7198 369.029 11.6587 369.785 12.0972Z" fill="#715EDA"/>
<path d="M350.103 83.7754L331.761 73.1163L331.708 54.1389L350.049 64.798L350.103 83.7754Z" fill="#6056BF"/>
<path d="M368.656 32.58L350.314 21.9209L366.829 12.386L385.17 23.0451L368.656 32.58Z" fill="#6056BF"/>
<path d="M330.588 74.6165L312.246 63.9574C311.501 63.5241 311.038 62.6029 311.034 61.2939L329.375 71.9531C329.379 73.262 329.841 74.1832 330.588 74.6165Z" fill="#715EDA"/>
<path d="M349.049 0.281229L367.39 10.9403C366.634 10.5018 365.589 10.563 364.435 11.2292L346.094 0.570087C347.247 -0.0974086 348.293 -0.158563 349.049 0.281229Z" fill="#6056BF"/>
<path d="M329.375 71.9532L311.034 61.2941L311 49.4001L329.341 60.0593L329.375 71.9532Z" fill="#6056BF"/>
<path d="M333.481 52.887L315.14 42.2292L331.647 32.6982L349.988 43.3573L333.481 52.887Z" fill="#6056BF"/>
<path d="M349.988 43.3575L331.647 32.6984L331.593 13.7209L349.934 24.3801L349.988 43.3575Z" fill="#715EDA"/>
<path d="M354.075 17.2094L335.734 6.55028L346.094 0.568848L364.435 11.228L354.075 17.2094Z" fill="#715EDA"/>
<path d="M329.341 60.0591L311 49.3999C310.992 46.7651 312.848 43.5525 315.14 42.2292L333.481 52.8884C331.189 54.2116 329.333 57.4242 329.341 60.0591Z" fill="#715EDA"/>
<path d="M364.435 11.2278C366.728 9.90448 368.595 10.9675 368.603 13.6024L368.656 32.5798L385.172 23.0449C387.464 21.7216 389.331 22.7847 389.339 25.4195L389.373 37.3134C389.381 39.9483 387.525 43.1608 385.233 44.4841L368.717 54.019L368.77 72.9965C368.778 75.6313 366.923 78.8439 364.63 80.1671L354.27 86.1486C351.978 87.4719 350.11 86.4088 350.103 83.774L350.049 64.7965L333.543 74.3262C331.25 75.6495 329.383 74.5865 329.375 71.9516L329.341 60.0577C329.334 57.4229 331.189 54.2103 333.482 52.887L349.988 43.356L349.935 24.3786C349.927 21.7437 351.782 18.5312 354.075 17.2079L364.435 11.2278Z" fill="#8473F1"/>
<path d="M349.934 24.3801L331.593 13.721C331.585 11.0861 333.441 7.87357 335.734 6.55029L354.075 17.2094C351.782 18.5327 349.927 21.7452 349.934 24.3801Z" fill="#6056BF"/>
<path d="M626.738 419.573L590.336 440.727C588.547 441.766 588.556 443.454 590.357 444.495L596.903 448.275L631.667 468.345C633.468 469.385 636.381 469.385 638.17 468.345L656.371 457.768L674.572 447.191C676.361 446.151 676.352 444.464 674.551 443.424L633.242 419.574C631.441 418.533 628.527 418.533 626.738 419.573Z" fill="#D3D3D3"/>
<path d="M649.347 442.789L631.006 453.449C631.751 453.015 632.215 452.094 632.217 450.785L650.558 440.126C650.556 441.435 650.093 442.356 649.347 442.789Z" fill="#715EDA"/>
<path d="M594.204 389.762L612.545 379.103C613.301 378.664 614.346 378.725 615.5 379.391L597.159 390.051C596.005 389.384 594.959 389.322 594.204 389.762Z" fill="#715EDA"/>
<path d="M632.272 431.808L650.613 421.15L650.558 440.126L632.217 450.785L632.272 431.808Z" fill="#6056BF"/>
<path d="M597.159 390.051L615.5 379.392L632.007 388.923L613.666 399.58L597.159 390.051Z" fill="#6056BF"/>
<path d="M670.084 430.972L651.743 441.631C652.488 441.198 652.951 440.277 652.955 438.968L671.297 428.309C671.291 429.618 670.829 430.539 670.084 430.972Z" fill="#6056BF"/>
<path d="M614.932 377.939L633.273 367.28C634.029 366.842 635.074 366.903 636.228 367.569L617.887 378.228C616.734 377.562 615.688 377.501 614.932 377.939Z" fill="#715EDA"/>
<path d="M652.988 427.065L671.329 416.406L671.295 428.31L652.954 438.968L652.988 427.065Z" fill="#715EDA"/>
<path d="M632.333 410.358L650.673 399.699L667.189 409.235L648.848 419.893L632.333 410.358Z" fill="#715EDA"/>
<path d="M632.387 391.38L650.728 380.723L650.673 399.699L632.333 410.358L632.387 391.38Z" fill="#6056BF"/>
<path d="M617.887 378.228L636.228 367.57L646.588 373.55L628.247 384.21L617.887 378.228Z" fill="#6056BF"/>
<path d="M648.848 419.892L667.189 409.233C669.481 410.557 671.337 413.769 671.329 416.404L652.988 427.063C652.996 424.43 651.14 421.217 648.848 419.892Z" fill="#6056BF"/>
<path d="M628.246 384.21C630.539 385.533 632.394 388.745 632.387 391.38L632.333 410.358L648.849 419.893C651.142 421.216 652.997 424.428 652.989 427.063L652.955 438.966C652.948 441.601 651.08 442.664 648.788 441.341L632.272 431.806L632.219 450.783C632.211 453.418 630.344 454.481 628.051 453.158L617.691 447.177C615.399 445.853 613.543 442.641 613.551 440.006L613.604 421.029L597.098 411.499C594.805 410.176 592.95 406.963 592.958 404.328L592.991 392.424C592.999 389.789 594.866 388.726 597.159 390.049L613.665 399.579L613.719 380.601C613.727 377.967 615.594 376.902 617.886 378.227L628.246 384.21Z" fill="#8473F1"/>
<path d="M628.246 384.21L646.587 373.551C648.88 374.874 650.735 378.087 650.728 380.721L632.386 391.381C632.394 388.746 630.539 385.533 628.246 384.21Z" fill="#715EDA"/>
<path d="M63.7854 318.624L115.343 288.662C117.6 287.35 117.588 285.23 115.326 283.923L90.415 269.541C88.1522 268.235 84.4921 268.235 82.2346 269.548L30.6787 299.51C28.4303 300.816 28.442 302.936 30.7047 304.242L55.6154 318.624C57.8781 319.93 61.5383 319.93 63.7854 318.624Z" fill="#D3D3D3"/>
<path d="M91.1244 264.019L72.7832 253.361L84.4936 260.043L102.835 270.702L91.1244 264.019Z" fill="#61D8E8"/>
<path d="M95.388 232.931L77.0469 222.271L84.3984 226.461L102.74 237.119L95.388 232.931Z" fill="#61D8E8"/>
<path d="M92.45 233.229L74.1089 222.57C75.1706 221.957 76.2337 221.809 77.0469 222.272L95.3881 232.931C94.5748 232.468 93.5131 232.615 92.45 233.229Z" fill="#61D8E8"/>
<path d="M53.1084 306.172L34.7672 295.513C33.1343 294.592 33.1252 291.565 34.7477 288.764L53.0889 299.423C51.4663 302.224 51.4754 305.251 53.1084 306.172Z" fill="#35B0BE"/>
<path d="M53.0887 299.423L34.7476 288.764L46.3825 268.604L64.7237 279.263L53.0887 299.423Z" fill="#32C1CC"/>
<path d="M77.8807 256.482L59.5396 245.824L71.1732 225.664L89.5144 236.321L77.8807 256.482Z" fill="#32C1CC"/>
<path d="M89.5145 236.322L71.1733 225.663C71.9853 224.261 73.047 223.183 74.1088 222.568L92.4499 233.227C91.3882 233.842 90.3264 234.92 89.5145 236.322Z" fill="#35B0BE"/>
<path d="M66.1624 249.804L47.8213 239.145L59.5395 245.824L77.8807 256.482L66.1624 249.804Z" fill="#61D8E8"/>
<path d="M53.0132 272.589L34.672 261.93C33.039 261.009 33.0299 257.982 34.6525 255.181L52.9936 265.84C51.3711 268.641 51.3802 271.668 53.0132 272.589Z" fill="#35B0BE"/>
<path d="M52.9935 265.84L34.6523 255.182L41.948 242.536L60.2891 253.195L52.9935 265.84Z" fill="#32C1CC"/>
<path d="M92.4502 233.229C93.5119 232.616 94.575 232.468 95.3882 232.931L102.74 237.119C104.365 238.046 104.374 241.072 102.759 243.868L91.1256 264.02L102.836 270.702C104.461 271.629 104.47 274.654 102.856 277.451L95.5522 290.101C94.7454 291.5 93.685 292.577 92.6219 293.192C91.5602 293.804 90.4945 293.953 89.6787 293.492L77.9683 286.809L66.3255 306.975C65.5188 308.373 64.4557 309.452 63.3927 310.066C62.3296 310.68 61.264 310.829 60.452 310.366L53.1096 306.172C51.4753 305.251 51.4675 302.224 53.0901 299.423L64.7238 279.263L53.0133 272.589C51.3804 271.668 51.3712 268.641 52.9938 265.84L60.2894 253.195C61.0974 251.796 62.1592 250.718 63.2222 250.104C64.2853 249.489 65.3496 249.341 66.1628 249.804L77.8811 256.482L89.5148 236.322C90.3267 234.92 91.3884 233.842 92.4502 233.229Z" fill="#61D8E8"/>
<path d="M60.2894 253.195L41.9482 242.536C42.755 241.137 43.818 240.059 44.8811 239.444C45.9441 238.83 47.0098 238.682 47.8217 239.145L66.1628 249.804C65.3509 249.341 64.2853 249.489 63.2222 250.104C62.1579 250.718 61.0961 251.796 60.2894 253.195Z" fill="#35B0BE"/>
<path d="M605.272 161.415L631.352 146.259C633.731 144.876 633.719 142.644 631.334 141.266L586.656 115.781C584.272 114.404 580.416 114.404 578.036 115.786L551.954 130.944C549.585 132.32 549.598 134.554 551.983 135.931L596.662 161.415C599.047 162.792 602.902 162.792 605.272 161.415Z" fill="#D3D3D3"/>
<path d="M556.74 110.705L575.08 100.048L586.791 93.3647L568.449 104.023L556.74 110.705Z" fill="#61D8E8"/>
<path d="M556.835 77.1133L575.176 66.4555L582.519 62.271L564.177 72.9288L556.835 77.1133Z" fill="#61D8E8"/>
<path d="M606.485 139.426L624.826 128.767C626.441 131.563 626.432 134.58 624.806 135.516L606.465 146.175C608.09 145.24 608.1 142.223 606.485 139.426Z" fill="#32C1CC"/>
<path d="M594.851 119.266L613.192 108.606L624.826 128.768L606.485 139.426L594.851 119.266Z" fill="#35B0BE"/>
<path d="M570.051 76.3207L588.392 65.6616L600.033 85.8179L581.692 96.4757L570.051 76.3207Z" fill="#35B0BE"/>
<path d="M564.177 72.9287L582.518 62.2696C583.336 61.809 584.4 61.9573 585.462 62.5715C586.523 63.1843 587.584 64.263 588.392 65.6617L570.051 76.3208C569.244 74.9221 568.184 73.8447 567.122 73.2306C566.059 72.6177 564.994 72.4681 564.177 72.9287Z" fill="#32C1CC"/>
<path d="M581.692 96.4757L600.034 85.8179L611.752 79.1494L593.412 89.8072L581.692 96.4757Z" fill="#61D8E8"/>
<path d="M593.412 89.8074L611.753 79.1483C612.566 78.6851 613.628 78.8321 614.691 79.4463L596.35 90.1054C595.287 89.4912 594.224 89.3442 593.412 89.8074Z" fill="#32C1CC"/>
<path d="M606.58 105.834L624.921 95.1746C626.536 97.9812 626.526 100.997 624.901 101.924L606.56 112.583C608.185 111.656 608.194 108.64 606.58 105.834Z" fill="#32C1CC"/>
<path d="M599.285 93.1983L617.625 82.5405L624.921 95.1761L606.579 105.834L599.285 93.1983Z" fill="#35B0BE"/>
<path d="M596.349 90.1054C597.41 90.7183 598.473 91.7982 599.284 93.1983L606.58 105.834C608.194 108.64 608.185 111.657 606.56 112.583L594.85 119.266L606.483 139.426C608.098 142.222 608.089 145.239 606.464 146.175L599.121 150.36C598.304 150.825 597.24 150.678 596.178 150.065C595.116 149.453 594.056 148.371 593.248 146.969L581.605 126.812L569.887 133.481C569.074 133.949 568.012 133.804 566.949 133.191C565.887 132.578 564.824 131.495 564.014 130.09L556.718 117.455C555.103 114.648 555.112 111.632 556.737 110.705L568.448 104.023L556.814 83.8624C555.199 81.0663 555.209 78.0489 556.834 77.1133L564.176 72.9288C564.993 72.4682 566.058 72.6165 567.119 73.2307C568.181 73.8435 569.242 74.9222 570.048 76.3209L581.691 96.4772L593.409 89.8088C594.224 89.3442 595.287 89.4913 596.349 90.1054Z" fill="#61D8E8"/>
<path d="M596.349 90.1054L614.69 79.4463C615.752 80.0591 616.815 81.1391 617.625 82.5391L599.284 93.1983C598.473 91.7982 597.412 90.7182 596.349 90.1054Z" fill="#35B0BE"/>
<path d="M513.665 260.7C494.03 249.363 468.794 245.582 457.306 252.258C445.807 258.941 452.416 273.545 472.053 284.882C491.699 296.225 516.923 300 528.423 293.317C539.911 286.641 533.312 272.042 513.665 260.7Z" fill="#D3D3D3"/>
<path d="M485.867 254.965C484.164 251.084 478.975 251.602 477.434 252.085C477.434 252.085 470.357 260.344 466.797 263.176C466.013 263.799 465.18 264.418 464.692 265.293C464.204 266.168 464.169 267.39 464.903 268.073C465.258 268.404 465.736 268.563 466.203 268.693C471.346 270.123 477.309 268.91 481.028 265.079C484.747 261.249 486.905 259.769 485.867 254.965Z" fill="#CC1343"/>
<path d="M492.96 284.481C492.86 284.862 492.793 285.288 492.978 285.637C493.173 286.007 493.596 286.19 493.993 286.322C497.917 287.625 502.228 286.558 506.066 285.02C508.58 284.013 511.051 282.782 513.046 280.95C515.041 279.119 516.532 276.618 516.697 273.914C517.163 266.239 508.148 261.305 506.37 267.069C504.79 272.183 494.402 279.002 492.96 284.481Z" fill="#CC1343"/>
<path d="M477.434 252.085C477.732 256.554 483.141 256.937 485.867 254.965C486.127 235.132 486.843 218.392 489.643 196.52C489.993 193.789 492.158 192.878 494.712 193.903C496.275 194.53 497.496 204.138 497.693 205.81C500.042 225.597 504.799 264.656 506.367 267.069C507.936 269.481 512.627 269.568 514.8 267.683C516.529 240.314 516.461 214.102 516.677 186.679C516.697 184.202 516.718 180.557 516.738 178.432C516.755 176.845 470.023 161.966 470.581 167.555C471.204 173.787 471.376 191.669 471.809 198.067C472.811 212.821 477.211 248.728 477.434 252.085Z" fill="#FCD500"/>
<path d="M448.805 166.458C446.747 169.68 443.206 175.034 444.16 176.106C445.304 178.533 448.261 172.679 450.405 171.845C452.046 174.236 452.889 174.101 455.714 173.246C458.539 172.391 460.374 169.241 458.834 166.722C458.368 165.958 457.851 165.239 457.512 164.41C456.547 162.048 475.876 131.722 477.731 117.664C478.01 115.558 475.068 110.312 473.09 109.536C467.479 107.335 463.542 129.506 462.049 133.388C458.366 142.976 454.336 157.803 448.805 166.458Z" fill="#FFCFA9"/>
<path d="M528.575 127.591C528.418 127.791 528.232 127.992 528.047 128.162C524.13 131.792 520.474 133.967 516.157 131.752C515.828 131.595 516.926 148.16 515.582 159.023C513.709 160.41 511.909 161.882 510.179 163.44C509.537 164.012 508.85 164.941 509.35 165.656C509.808 166.299 510.809 166.086 511.581 166.256C513.367 166.643 513.754 169 513.625 170.815C513.496 172.631 513.439 174.889 515.026 175.79C515.626 176.133 516.284 176.162 516.927 175.976C516.999 176.805 517.056 177.648 516.741 178.435C516.17 179.878 514.597 180.637 513.125 181.136C500.146 185.667 470.792 177.329 470.584 167.557C470.942 151.405 471.506 146.092 471.848 129.941C471.934 126.296 472.643 124.462 472.066 119.807C472.066 119.807 465.345 116.603 465.345 114.332C467.162 107.808 469.391 102.063 472.493 97.2609C476.438 91.1715 485.193 89.5008 489.395 89.8573C497.52 90.5456 502.271 90.3309 511.011 93.8024C513.681 94.8628 522.042 100.865 523.234 103.479C525.468 108.378 528.303 116.43 529.375 120.045C530.118 122.574 530.176 125.59 528.575 127.591Z" fill="#32C1CC"/>
<path d="M516.926 175.975C516.283 176.161 515.625 176.132 515.025 175.789C513.439 174.888 513.496 172.63 513.623 170.814C513.752 168.999 513.366 166.64 511.579 166.255C510.808 166.083 509.807 166.298 509.349 165.655C508.849 164.941 509.535 164.012 510.178 163.439C511.907 161.882 513.708 160.409 515.58 159.022C515.953 164.811 516.366 170.485 516.896 175.689C516.912 175.79 516.911 175.876 516.926 175.975Z" fill="#32C1CC"/>
<path d="M487.618 92.6524C485.125 94.4324 491.772 100.228 494.815 100.584C498.608 101.029 502.571 99.7138 505.347 97.0907C506.973 95.5527 508.161 93.0909 506.32 91.8184C503.947 90.1789 504.29 83.4532 504.187 82.0571C504.112 81.0213 494.092 81.0669 492.265 81.0734C487.734 81.0864 491.787 89.6741 487.618 92.6524Z" fill="#FFCFA9"/>
<path d="M493.456 86.6955C502.139 86.6955 509.179 78.9849 509.179 69.4734C509.179 59.9618 502.139 52.2512 493.456 52.2512C484.772 52.2512 477.732 59.9618 477.732 69.4734C477.732 78.9849 484.772 86.6955 493.456 86.6955Z" fill="#FFCFA9"/>
<path d="M486.441 61.7211C489.954 61.2215 493.791 60.8246 496.925 62.4901C498.416 63.2825 500.124 65.9707 500.84 69.4735C502.041 67.5022 506.208 66.0996 507.251 70.7343C507.758 72.9866 506.091 74.9943 503.937 75.8556C503.925 76.5388 505.723 78.8054 506.665 78.8054C510.623 76.9564 514.061 70.0186 513.53 65.0742C513.184 61.8578 512.87 47.506 489.239 49.1272C483.309 49.5345 474.848 50.768 475.059 56.4397C475.35 64.3026 480.16 62.6137 486.441 61.7211Z" fill="#1C5C68"/>
<path d="M520.842 167.399C520.128 169.257 520.285 171.358 519.598 173.245C519.169 174.46 518.083 175.59 516.926 175.975C516.283 176.161 515.625 176.132 515.025 175.789C513.439 174.888 513.496 172.629 513.623 170.814C513.752 168.999 513.366 166.64 511.579 166.255C510.808 166.083 509.807 166.298 509.349 165.655C508.849 164.941 509.535 164.012 510.178 163.439C511.907 161.882 514.858 161.685 516.738 160.309C519.864 158.021 521.839 143.578 521.382 142.293C519.881 138.062 518.049 136.042 516.156 131.752C521.727 131.735 524.129 131.794 528.046 128.162C528.232 127.991 528.418 127.79 528.574 127.591C529.217 128.992 529.675 130.521 530.103 131.993C531.075 135.437 531.602 135.351 531.946 138.932C532.641 146.153 521.999 164.354 520.842 167.399Z" fill="#FFCFA9"/>
<path d="M519.108 361.902L450.055 322.034L381.003 282.167C376.545 279.593 369.334 279.593 364.885 282.178L294.293 323.201L169.028 395.997C164.6 398.571 164.625 402.748 169.082 405.321L268.717 462.846L307.188 485.057C311.646 487.63 318.857 487.63 323.286 485.057L448.55 412.262L519.142 371.238C523.589 368.652 523.566 364.475 519.108 361.902Z" fill="#D3D3D3"/>
<path d="M507.92 344.799L507.87 362.831C507.866 364.08 507.045 365.326 505.405 366.279L505.456 348.247C507.095 347.295 507.917 346.048 507.92 344.799Z" fill="#715EDA"/>
<path d="M184.151 397.95L184.202 379.919C184.198 381.184 185.034 382.45 186.706 383.415L186.655 401.447C184.983 400.482 184.149 399.215 184.151 397.95Z" fill="#715EDA"/>
<path d="M505.456 348.247L505.405 366.279L322.169 472.763L322.22 454.733L505.456 348.247Z" fill="#715EDA"/>
<path d="M310.23 454.733L310.179 472.763L186.656 401.448L186.707 383.416L310.23 454.733Z" fill="#715EDA"/>
<path d="M322.22 454.733L322.169 472.764C318.868 474.684 313.502 474.684 310.179 472.764L310.23 454.733C313.553 456.651 318.919 456.651 322.22 454.733Z" fill="#715EDA"/>
<path d="M505.417 341.303C508.74 343.221 508.757 346.329 505.456 348.248L322.22 454.733C318.919 456.651 313.553 456.652 310.23 454.733L186.707 383.416C183.384 381.498 183.367 378.39 186.668 376.471L369.904 269.986C373.205 268.067 378.571 268.067 381.894 269.986L505.417 341.303Z" fill="#8473F1"/>
<mask id="mask0_66_478" style="mask-type:luminance" maskUnits="userSpaceOnUse" x="340" y="282" width="144" height="83">
<path d="M340.2 298.169L367.968 282.032L483.079 348.492L455.312 364.629L340.2 298.169Z" fill="white"/>
</mask>
<g mask="url(#mask0_66_478)">
<path d="M483.079 348.492L367.968 282.032L340.2 298.169L455.312 364.629L483.079 348.492Z" fill="#E6E6E6"/>
</g>
<path d="M354.184 318.361L354.17 323.663L334.608 335.031L334.624 329.728L354.184 318.361Z" fill="#B7881F"/>
<path d="M334.624 329.728L334.609 335.031L310.525 321.126L310.541 315.824L334.624 329.728Z" fill="#B7881F"/>
<path d="M354.185 318.361L334.624 329.728L310.541 315.824L330.101 304.456L354.185 318.361Z" fill="#FCD500"/>
<path d="M383.112 335.061L383.096 340.365L363.536 351.732L363.55 346.428L383.112 335.061Z" fill="#B7881F"/>
<path d="M363.55 346.428L363.536 351.732L339.444 337.822L339.459 332.519L363.55 346.428Z" fill="#B7881F"/>
<path d="M383.112 335.061L363.55 346.428L339.459 332.519L359.02 321.152L383.112 335.061Z" fill="#FCD500"/>
<path d="M412.03 351.758L412.014 357.06L392.454 368.428L392.468 363.125L412.03 351.758Z" fill="#B7881F"/>
<path d="M392.469 363.125L392.454 368.428L368.371 354.523L368.385 349.221L392.469 363.125Z" fill="#B7881F"/>
<path d="M412.03 351.758L392.468 363.125L368.385 349.221L387.946 337.853L412.03 351.758Z" fill="#FCD500"/>
<path d="M440.948 368.453L440.933 373.757L421.373 385.124L421.387 379.821L440.948 368.453Z" fill="#D04D66"/>
<path d="M421.387 379.821L421.373 385.124L397.29 371.22L397.304 365.916L421.387 379.821Z" fill="#D04D66"/>
<path d="M440.949 368.453L421.387 379.821L397.304 365.916L416.865 354.549L440.949 368.453Z" fill="#FF8CA1"/>
<path d="M328.69 333.176L328.675 338.48L309.114 349.848L309.129 344.545L328.69 333.176Z" fill="#03323B"/>
<path d="M309.13 344.544L309.114 349.848L285.031 335.942L285.046 330.64L309.13 344.544Z" fill="#03323B"/>
<path d="M328.69 333.176L309.13 344.544L285.046 330.64L304.607 319.272L328.69 333.176Z" fill="#1C5C68"/>
<path d="M357.617 349.877L357.601 355.18L338.041 366.548L338.055 361.244L357.617 349.877Z" fill="#03323B"/>
<path d="M338.055 361.245L338.041 366.548L313.949 352.639L313.964 347.335L338.055 361.245Z" fill="#03323B"/>
<path d="M357.617 349.878L338.055 361.245L313.964 347.335L333.525 335.968L357.617 349.878Z" fill="#1C5C68"/>
<path d="M386.535 366.573L386.52 371.876L366.959 383.243L366.974 377.941L386.535 366.573Z" fill="#03323B"/>
<path d="M366.974 377.941L366.96 383.243L342.876 369.339L342.891 364.035L366.974 377.941Z" fill="#03323B"/>
<path d="M386.535 366.573L366.974 377.941L342.891 364.035L362.451 352.668L386.535 366.573Z" fill="#1C5C68"/>
<path d="M415.453 383.27L415.438 388.573L395.877 399.94L395.892 394.636L415.453 383.27Z" fill="#D04D66"/>
<path d="M395.892 394.637L395.878 399.94L371.794 386.036L371.809 380.732L395.892 394.637Z" fill="#D04D66"/>
<path d="M415.453 383.269L395.892 394.636L371.809 380.732L391.369 369.365L415.453 383.269Z" fill="#FF8CA1"/>
<path d="M303.195 347.992L303.18 353.296L283.619 364.663L283.634 359.36L303.195 347.992Z" fill="#03323B"/>
<path d="M283.634 359.361L283.619 364.663L259.536 350.759L259.551 345.455L283.634 359.361Z" fill="#03323B"/>
<path d="M303.195 347.992L283.634 359.36L259.551 345.455L279.112 334.088L303.195 347.992Z" fill="#1C5C68"/>
<path d="M332.122 364.694L332.107 369.996L312.546 381.364L312.561 376.061L332.122 364.694Z" fill="#03323B"/>
<path d="M312.561 376.061L312.546 381.365L288.454 367.455L288.47 362.152L312.561 376.061Z" fill="#03323B"/>
<path d="M332.122 364.694L312.561 376.061L288.47 362.152L308.03 350.785L332.122 364.694Z" fill="#1C5C68"/>
<path d="M361.04 381.389L361.025 386.693L341.464 398.06L341.479 392.756L361.04 381.389Z" fill="#03323B"/>
<path d="M341.479 392.756L341.465 398.059L317.381 384.155L317.396 378.852L341.479 392.756Z" fill="#03323B"/>
<path d="M361.04 381.389L341.479 392.756L317.396 378.852L336.956 367.485L361.04 381.389Z" fill="#1C5C68"/>
<path d="M389.959 398.086L389.943 403.389L370.383 414.756L370.397 409.453L389.959 398.086Z" fill="#D04D66"/>
<path d="M370.397 409.453L370.383 414.756L346.3 400.852L346.314 395.548L370.397 409.453Z" fill="#D04D66"/>
<path d="M389.959 398.086L370.397 409.453L346.314 395.548L365.874 384.18L389.959 398.086Z" fill="#FF8CA1"/>
<path d="M277.699 362.809L277.685 368.112L258.124 379.479L258.139 374.176L277.699 362.809Z" fill="#03323B"/>
<path d="M258.139 374.175L258.124 379.479L234.041 365.575L234.056 360.271L258.139 374.175Z" fill="#03323B"/>
<path d="M277.699 362.809L258.139 374.175L234.056 360.271L253.616 348.904L277.699 362.809Z" fill="#1C5C68"/>
<path d="M306.627 379.509L306.612 384.812L287.051 396.181L287.066 390.877L306.627 379.509Z" fill="#03323B"/>
<path d="M287.066 390.877L287.051 396.181L262.959 382.271L262.975 376.968L287.066 390.877Z" fill="#03323B"/>
<path d="M306.627 379.509L287.066 390.877L262.975 376.968L282.535 365.6L306.627 379.509Z" fill="#1C5C68"/>
<path d="M335.545 396.206L335.53 401.509L315.969 412.876L315.984 407.572L335.545 396.206Z" fill="#03323B"/>
<path d="M315.984 407.572L315.969 412.876L291.886 398.972L291.901 393.668L315.984 407.572Z" fill="#03323B"/>
<path d="M335.545 396.205L315.984 407.572L291.9 393.668L311.461 382.301L335.545 396.205Z" fill="#1C5C68"/>
<path d="M252.646 377.879L252.63 383.182L233.07 394.549L233.084 389.247L252.646 377.879Z" fill="#D04D66"/>
<path d="M233.084 389.247L233.07 394.549L208.987 380.645L209.001 375.341L233.084 389.247Z" fill="#D04D66"/>
<path d="M252.646 377.879L233.084 389.247L209.001 375.342L228.561 363.975L252.646 377.879Z" fill="#FF8CA1"/>
<path d="M281.572 394.579L281.556 399.882L261.996 411.25L262.012 405.947L281.572 394.579Z" fill="#D04D66"/>
<path d="M262.012 405.947L261.996 411.251L237.905 397.341L237.92 392.038L262.012 405.947Z" fill="#D04D66"/>
<path d="M281.572 394.579L262.012 405.947L237.919 392.038L257.48 380.669L281.572 394.579Z" fill="#FF8CA1"/>
<path d="M310.49 411.276L310.474 416.579L290.914 427.946L290.93 422.643L310.49 411.276Z" fill="#D04D66"/>
<path d="M290.93 422.642L290.914 427.946L266.831 414.042L266.845 408.738L290.93 422.642Z" fill="#D04D66"/>
<path d="M310.49 411.276L290.93 422.643L266.845 408.739L286.407 397.372L310.49 411.276Z" fill="#FF8CA1"/>
<path d="M364.463 412.901L364.448 418.204L319.393 444.388L319.407 439.085L364.463 412.901Z" fill="#D04D66"/>
<path d="M319.407 439.085L319.393 444.388L295.31 430.483L295.324 425.181L319.407 439.085Z" fill="#D04D66"/>
<path d="M364.464 412.901L319.407 439.085L295.324 425.181L340.379 398.997L364.464 412.901Z" fill="#FF8CA1"/>
<mask id="mask1_66_478" style="mask-type:luminance" maskUnits="userSpaceOnUse" x="216" y="309" width="213" height="123">
<path d="M216.658 374.981L330.036 309.09L428.736 366.08L315.358 431.971L216.658 374.981Z" fill="white"/>
</mask>
<g mask="url(#mask1_66_478)">
<path d="M226.487 379.443C224.543 378.32 224.832 376.604 227.795 374.881C230.757 373.159 233.729 372.981 235.673 374.104C237.617 375.227 237.321 376.948 234.358 378.67C231.394 380.393 228.431 380.564 226.487 379.443ZM236.713 373.499C234.129 372.008 230.155 372.151 226.622 374.204C223.09 376.258 222.854 378.559 225.438 380.052C228.022 381.543 232.004 381.405 235.537 379.352C239.069 377.298 239.296 374.991 236.713 373.499Z" fill="white"/>
<path d="M259.676 393.022C259.21 392.754 258.466 392.743 257.97 393.031C257.483 393.313 257.486 393.756 257.95 394.024C258.407 394.288 259.185 394.297 259.673 394.014C260.169 393.727 260.134 393.286 259.676 393.022Z" fill="white"/>
<path d="M290.219 413.028L283.283 409.023L282.342 409.57L289.278 413.575L290.219 413.028ZM293.875 410.903L286.939 406.898L286.006 407.441L292.942 411.446L293.875 410.903Z" fill="white"/>
<path d="M333.149 418.012L332.143 417.431L329.246 419.115L326.281 417.403L325.348 417.945L328.313 419.658L325.433 421.331L326.439 421.911L329.319 420.238L332.285 421.95L333.218 421.408L330.252 419.695L333.149 418.012Z" fill="white"/>
<path d="M260.334 358.203L256.554 356.021L255.538 356.611L258.171 358.131L248.103 363.984L249.249 364.645L260.334 358.203Z" fill="white"/>
<path d="M289.742 375.068C288.038 374.084 286.074 373.62 284.203 373.706L284.316 374.584C285.889 374.516 287.29 374.866 288.603 375.625C290.306 376.609 290.42 377.591 289.131 378.341C288.371 378.782 287.397 379.08 284.896 379.069L275.737 379.012L274.937 379.478L282.771 384.001L283.778 383.415L277.64 379.871L285.15 379.905C288.098 379.924 289.379 379.564 290.444 378.946C292.291 377.87 292.01 376.377 289.742 375.068Z" fill="white"/>
<path d="M317.053 362.266L310.947 358.74L304.81 361.641L307.186 363.013C310.019 364.648 310.033 365.68 308.606 366.509C307.26 367.291 305.339 367.243 303.436 366.145C302.008 365.32 301.265 364.27 301.293 363.425L299.837 363.627C299.818 364.629 300.801 365.838 302.406 366.764C305.139 368.342 307.937 368.246 309.818 367.153C311.783 366.012 311.816 364.51 308.451 362.568L307.022 361.743L310.937 359.911L316.038 362.855L317.053 362.266Z" fill="white"/>
<path d="M330.233 351.43C328.255 350.289 327.943 349.123 329.32 348.322C330.683 347.531 332.703 347.702 334.681 348.845C336.659 349.986 336.979 351.166 335.618 351.957C334.239 352.759 332.209 352.573 330.233 351.43ZM335.58 348.322C333.845 347.32 333.606 346.274 334.819 345.568C336.057 344.849 337.879 345.022 339.575 346C341.244 346.965 341.59 348.043 340.336 348.773C339.139 349.469 337.317 349.325 335.58 348.322ZM340.542 345.44C338.183 344.077 335.515 343.838 333.707 344.888C332.551 345.559 332.324 346.404 333.025 347.315C331.176 346.782 329.478 346.883 328.142 347.659C326.186 348.797 326.584 350.441 329.267 351.991C331.925 353.526 334.826 353.785 336.781 352.648C338.102 351.88 338.27 350.878 337.328 349.798C338.911 350.206 340.393 350.086 341.549 349.415C343.356 348.366 342.901 346.802 340.542 345.44Z" fill="white"/>
<path d="M368.291 331.179C364.927 329.236 360.041 329.188 356.797 331.073C353.545 332.963 353.644 335.793 356.992 337.726C358.629 338.671 360.66 339.194 362.722 339.141L362.717 338.277C360.871 338.291 359.361 337.878 358.082 337.139C355.39 335.586 355.328 333.274 357.961 331.743C360.586 330.218 364.578 330.247 367.269 331.801C368.548 332.54 369.265 333.413 369.263 334.472H370.753C370.846 333.275 369.911 332.114 368.291 331.179Z" fill="white"/>
<path d="M321.833 393.713L314.656 389.568L313.641 390.158L319.357 393.458L312.413 393.904L311.571 394.393L312.369 394.854C314.445 396.053 314.518 397.098 313.181 397.875C311.803 398.676 309.93 398.58 308.077 397.511C306.632 396.677 305.872 395.616 305.901 394.772L304.445 394.973C304.425 395.975 305.426 397.194 307.029 398.12C309.729 399.678 312.511 399.63 314.359 398.555C316.134 397.524 316.193 396.104 313.924 394.651L321.025 394.181L321.833 393.713Z" fill="white"/>
<path d="M333.95 383.86C332.023 382.748 332.157 381.485 333.377 380.776C334.755 379.975 336.967 380.037 338.678 381.026C340.398 382.019 340.545 383.194 339.092 384.038C337.617 384.896 335.562 384.79 333.95 383.86ZM344.841 378.195C341.817 376.449 337.775 376.391 334.003 378.584C330.503 380.618 330.068 382.737 333.034 384.449C335.202 385.701 338.176 385.879 340.255 384.671C342.277 383.496 342.037 381.846 339.818 380.564C338.272 379.672 336.275 379.312 334.498 379.7C334.803 379.484 335.1 379.293 335.355 379.143C338.359 377.397 341.456 377.397 343.857 378.784C344.687 379.264 345.304 379.791 345.496 380.343L346.886 380.075C346.611 379.428 345.845 378.775 344.841 378.195Z" fill="white"/>
<path d="M364.255 365.805C362.535 364.812 362.38 363.641 363.833 362.798C365.309 361.939 367.364 362.045 368.967 362.971C370.903 364.089 370.769 365.35 369.547 366.06C368.169 366.86 365.957 366.789 364.255 365.805ZM369.891 362.386C367.723 361.134 364.749 360.956 362.677 362.161C360.647 363.341 360.896 364.985 363.114 366.267C364.66 367.16 366.648 367.524 368.427 367.135C368.13 367.346 367.817 367.538 367.56 367.687C364.556 369.433 361.476 369.433 359.075 368.046C358.245 367.566 357.621 367.044 357.419 366.487L356.046 366.755C356.314 367.407 357.089 368.055 358.085 368.63C361.117 370.381 365.158 370.439 368.93 368.246C372.431 366.214 372.857 364.098 369.891 362.386Z" fill="white"/>
<path d="M401.392 381.75L400.145 381.03L394.368 381.471L395.111 378.123L393.832 377.384L392.935 381.562L385.338 382.139L386.617 382.876L392.783 382.392L391.958 385.962L393.246 386.704L394.182 382.282L401.392 381.75Z" fill="white"/>
<path d="M371.127 398.135L366.949 395.722L365.966 396.293L370.144 398.705L371.127 398.135Z" fill="white"/>
<path d="M387.891 354.715C386.86 354.121 387.022 353.228 388.466 352.389C389.91 351.55 391.45 351.453 392.48 352.048C393.535 352.657 393.341 353.549 391.914 354.38C390.487 355.21 388.946 355.326 387.891 354.715ZM393.198 351.632C391.72 350.778 389.476 350.878 387.668 351.93C385.861 352.98 385.695 354.279 387.173 355.134C388.677 356.002 390.903 355.892 392.71 354.842C394.518 353.791 394.702 352.499 393.198 351.632ZM399.204 349.142L398.266 348.6L379.556 350.639L380.503 351.185L399.204 349.142ZM386.279 347.732C385.224 347.123 385.434 346.23 386.854 345.406C388.281 344.575 389.822 344.45 390.876 345.061C391.914 345.661 391.737 346.552 390.293 347.392C388.856 348.226 387.317 348.332 386.279 347.732ZM391.586 344.648C390.091 343.784 387.864 343.895 386.056 344.946C384.249 345.996 384.073 347.282 385.57 348.146C387.048 348.999 389.275 348.908 391.09 347.853C392.915 346.793 393.064 345.502 391.586 344.648Z" fill="white"/>
<path d="M288.999 346.068L287.727 345.334L274.45 346.188L273.633 346.662L279.939 350.303L277.025 351.996L278.172 352.658L281.085 350.965L283.311 352.251L284.318 351.665L282.092 350.38L284.659 348.887L283.538 348.241L280.971 349.732L276.128 346.936L288.999 346.068Z" fill="white"/>
<path d="M316.019 331.386L307.819 326.651L304.723 328.45L305.854 329.102L307.933 327.893L313.674 331.208L299.011 334.417L300.249 335.132L315.209 331.856L316.019 331.386Z" fill="white"/>
<path d="M324.876 314.775L331.559 313.298L329.021 317.169L324.876 314.775ZM332.965 313.009L332.059 312.486L319.529 315.197L320.484 315.748L323.809 315.009L328.619 317.786L327.364 319.719L328.328 320.276L332.965 313.009Z" fill="white"/>
<path d="M342.185 318.248C339.576 316.741 335.8 316.713 333.292 318.171C330.774 319.634 330.844 321.817 333.436 323.313C334.707 324.047 336.274 324.454 337.872 324.411L337.868 323.74C336.435 323.754 335.265 323.433 334.286 322.867C332.2 321.663 332.149 319.874 334.188 318.689C336.218 317.509 339.316 317.528 341.4 318.732C342.38 319.298 342.94 319.975 342.928 320.799H344.087C344.156 319.873 343.439 318.971 342.185 318.248Z" fill="white"/>
<path d="M417.19 368.573C416.775 368.333 416.129 368.323 415.684 368.582C415.237 368.841 415.24 369.224 415.655 369.464C416.087 369.714 416.749 369.714 417.196 369.455C417.642 369.197 417.622 368.822 417.19 368.573ZM423.396 369.001L416.459 364.996L415.526 365.538L422.463 369.543L423.396 369.001ZM423.256 365.048C422.841 364.808 422.195 364.798 421.733 365.067C421.303 365.317 421.306 365.701 421.721 365.94C422.153 366.19 422.815 366.19 423.245 365.94C423.708 365.671 423.688 365.298 423.256 365.048Z" fill="white"/>
</g>
<mask id="mask2_66_478" style="mask-type:luminance" maskUnits="userSpaceOnUse" x="399" y="316" width="65" height="38">
<path d="M399 320.787L407.236 316L463.262 348.348L455.025 353.135L399 320.787Z" fill="white"/>
</mask>
<g mask="url(#mask2_66_478)">
<path d="M405.405 320.096C404.467 319.553 404.553 318.801 405.552 318.221C406.675 317.569 408.14 317.478 409.062 318.01C410.2 318.667 409.659 319.56 408.297 320.351C408.124 320.451 407.974 320.499 407.818 320.524C407.048 320.633 406.128 320.514 405.405 320.096ZM409.97 317.578C408.333 316.634 405.908 316.773 404.406 317.646C403.044 318.437 402.885 319.598 404.331 320.433C405.128 320.894 406.098 321.081 407.075 321.022L407.109 321.042C406.026 321.508 404.942 321.694 403.933 321.665C403.046 321.651 402.201 321.458 401.486 321.142C401.186 321.003 400.95 320.892 400.762 320.783C400.69 320.741 400.625 320.7 400.565 320.658L399.682 321.171C399.734 321.202 399.788 321.236 399.847 321.27C400.082 321.406 400.38 321.56 400.752 321.713C401.715 322.154 402.925 322.433 404.143 322.438C405.692 322.452 407.52 322.083 409.27 321.067C411.3 319.885 411.615 318.528 409.97 317.578Z" fill="#1C5C68"/>
<path d="M408.781 325.526C407.75 324.931 407.845 324.163 408.696 323.717C409.456 323.276 410.564 323.208 411.776 323.592C412.559 324.398 412.77 325.065 411.803 325.626C410.986 326.101 409.752 326.087 408.781 325.526ZM412.858 323.319C412.175 322.648 411.998 322.048 412.799 321.583C413.483 321.185 414.568 321.132 415.465 321.651C416.437 322.212 416.158 322.817 415.523 323.186C414.798 323.608 413.787 323.588 412.858 323.319ZM416.3 321.233C414.896 320.423 412.966 320.303 411.703 321.037C411.019 321.435 410.715 322.054 411.182 322.812L411.158 322.835C409.756 322.514 408.441 322.576 407.434 323.162C406.271 323.838 406.293 324.999 407.971 325.968C409.5 326.85 411.629 327 413.007 326.199C413.981 325.633 414.067 324.87 413.45 324.065L413.492 324.041C414.943 324.343 416.002 324.113 416.669 323.725C417.669 323.142 417.861 322.135 416.3 321.233Z" fill="#1C5C68"/>
<path d="M425.023 326.422L419.964 323.501L419.065 324.024L422.985 326.288L422.961 326.302L412.432 328.389L413.553 329.037L424.306 326.84L425.023 326.422Z" fill="#1C5C68"/>
<path d="M421.474 332.798C420.494 332.232 421.017 331.177 423.088 329.973C425.259 328.711 427.104 328.438 428.059 328.989C429.18 329.637 428.4 330.678 426.435 331.819C424.407 333 422.588 333.441 421.474 332.798ZM428.953 328.538C427.325 327.597 424.701 327.785 422.027 329.339C419.419 330.884 419.013 332.342 420.582 333.248C422.36 334.275 424.867 333.991 427.575 332.418C430.117 330.941 430.647 329.516 428.953 328.538Z" fill="#1C5C68"/>
<path d="M434.976 332.016C434.112 331.518 432.993 331.225 432.272 331.163L431.771 331.782C432.359 331.844 433.254 332.036 433.894 332.405C434.891 332.98 434.737 333.542 434.101 333.912C433.153 334.464 431.759 334.119 430.969 333.662L430.363 333.312L429.546 333.787L430.152 334.137C431.198 334.741 431.742 335.6 430.628 336.257C429.984 336.65 428.67 336.914 427.274 336.108C426.526 335.676 426.109 335.082 426 334.789L424.876 335.105C425.01 335.48 425.519 336.098 426.424 336.621C428.344 337.73 430.463 337.662 431.734 336.923C432.857 336.271 432.786 335.378 431.987 334.698L432.012 334.684C433.363 335.043 434.555 334.928 435.38 334.448C436.343 333.887 436.554 332.927 434.976 332.016Z" fill="#1C5C68"/>
<path d="M441.404 335.728C440.482 335.196 439.346 334.941 438.327 334.889L437.917 335.532C438.589 335.566 439.558 335.705 440.28 336.121C441.485 336.818 441.133 337.475 440.323 337.944C439.111 338.64 437.156 338.698 433.173 338.644L431.492 338.63L430.833 339.014L435.958 341.974L436.857 341.451L433.251 339.369L433.276 339.355L434.502 339.383C437.815 339.422 440.075 339.35 441.544 338.496C442.683 337.834 443.132 336.726 441.404 335.728Z" fill="#1C5C68"/>
<path d="M448.542 340.002L447.62 339.469L444.935 338.999L444.317 339.599L446.464 339.968L446.488 339.983L439.522 344.031L440.569 344.636L448.542 340.002Z" fill="#1C5C68"/>
<path d="M446.803 347.423C445.814 346.852 446.346 345.802 448.418 344.598C450.588 343.336 452.433 343.063 453.381 343.61C454.502 344.258 453.721 345.299 451.757 346.441C449.727 347.619 447.917 348.066 446.803 347.423ZM454.281 343.163C452.653 342.222 450.021 342.406 447.347 343.959C444.74 345.504 444.341 346.966 445.903 347.868C447.68 348.894 450.187 348.611 452.895 347.038C455.438 345.561 455.967 344.136 454.281 343.163Z" fill="#1C5C68"/>
<path d="M453.133 351.078C452.145 350.507 452.677 349.457 454.748 348.253C456.919 346.991 458.764 346.718 459.711 347.266C460.84 347.918 460.052 348.955 458.087 350.096C456.057 351.275 454.247 351.721 453.133 351.078ZM460.611 346.818C458.983 345.877 456.351 346.061 453.676 347.614C451.068 349.159 450.67 350.621 452.241 351.528C454.01 352.55 456.518 352.267 459.225 350.694C461.768 349.216 462.298 347.791 460.611 346.818Z" fill="#1C5C68"/>
</g>
<path d="M644.225 308.096L670.358 292.908C672.742 291.523 672.728 289.285 670.34 287.906L615.542 256.269C613.154 254.89 609.289 254.89 606.905 256.274L580.772 271.461C578.398 272.841 578.411 275.08 580.8 276.459L635.597 308.097C637.987 309.475 641.852 309.475 644.225 308.096Z" fill="#D3D3D3"/>
<path d="M592.676 256.918L611.017 246.259C611.715 245.853 612.682 245.911 613.749 246.526L595.407 257.185C594.34 256.57 593.375 256.512 592.676 256.918Z" fill="#E81858"/>
<path d="M658.743 289.612L640.401 300.271C641.092 299.87 641.52 299.015 641.523 297.8L659.864 287.141C659.862 288.356 659.433 289.209 658.743 289.612Z" fill="#E81858"/>
<path d="M641.55 288.244L659.891 277.585L659.864 287.141L641.523 297.8L641.55 288.244Z" fill="#CC1343"/>
<path d="M595.407 257.185L613.748 246.526L656.066 270.959L637.725 281.617L595.407 257.185Z" fill="#CC1343"/>
<path d="M637.725 281.617L656.066 270.958C658.185 272.181 659.898 275.15 659.892 277.584L641.551 288.243C641.558 285.809 639.843 282.84 637.725 281.617Z" fill="#E81858"/>
<path d="M637.725 281.617C639.843 282.84 641.557 285.809 641.55 288.243L641.523 297.798C641.516 300.242 639.791 301.226 637.673 300.002L595.355 275.571C593.237 274.348 591.523 271.378 591.53 268.935L591.557 259.379C591.564 256.945 593.289 255.962 595.407 257.185L637.725 281.617Z" fill="#F9327A"/>
<path d="M131.746 623.944L187.29 591.665C189.722 590.252 189.71 587.967 187.272 586.561L160.435 571.066C157.998 569.658 154.054 569.658 151.623 571.073L96.0787 603.351C93.6572 604.759 93.6689 607.042 96.1073 608.45L122.944 623.944C125.381 625.352 129.325 625.352 131.746 623.944Z" fill="#D3D3D3"/>
<path d="M155.639 561.204L173.98 571.863C173.283 571.457 172.316 571.514 171.25 572.129L152.909 561.47C153.974 560.854 154.94 560.798 155.639 561.204Z" fill="#E81858"/>
<path d="M126.252 615.212L107.911 604.553C107.222 604.152 106.795 603.302 106.791 602.093L125.132 612.752C125.136 613.962 125.564 614.813 126.252 615.212Z" fill="#E81858"/>
<path d="M125.132 612.752L106.791 602.093L106.765 592.528L125.105 603.187L125.132 612.752Z" fill="#CC1343"/>
<path d="M128.931 596.562L110.59 585.903L152.908 561.471L171.249 572.129L128.931 596.562Z" fill="#CC1343"/>
<path d="M125.105 603.187L106.764 592.528C106.757 590.093 108.471 587.125 110.589 585.902L128.93 596.561C126.812 597.785 125.098 600.752 125.105 603.187Z" fill="#E81858"/>
<path d="M171.249 572.128C173.367 570.905 175.093 571.889 175.099 574.322L175.126 583.887C175.133 586.321 173.419 589.289 171.301 590.512L128.983 614.947C126.865 616.17 125.14 615.186 125.133 612.753L125.106 603.188C125.099 600.754 126.813 597.786 128.931 596.563L171.249 572.128Z" fill="#F9327A"/>
<path d="M74.1175 505.359L103.814 488.102C106.523 486.528 106.509 483.984 103.793 482.417L41.5248 446.466C38.8106 444.9 34.4191 444.9 31.7101 446.473L2.01374 463.73C-0.683561 465.298 -0.669248 467.842 2.04497 469.408L64.3146 505.359C67.0301 506.926 71.4202 506.926 74.1175 505.359Z" fill="#D3D3D3"/>
<path d="M13.9834 450.012L32.3246 439.353C33.1339 438.882 34.2555 438.948 35.4929 439.662L17.1517 450.321C15.9143 449.607 14.7927 449.541 13.9834 450.012Z" fill="#CEA702"/>
<path d="M88.9276 487.41L70.5864 498.069C71.3853 497.604 71.8811 496.617 71.885 495.213L90.2261 484.554C90.2222 485.958 89.7265 486.945 88.9276 487.41Z" fill="#CEA702"/>
<path d="M71.9082 487.06L90.2493 476.402L90.2259 484.554L71.8848 495.213L71.9082 487.06Z" fill="#B7881F"/>
<path d="M17.1514 450.321L35.4925 439.662L85.811 468.713L67.4698 479.372L17.1514 450.321Z" fill="#B7881F"/>
<path d="M67.4697 479.372L85.8109 468.713C88.2701 470.133 90.257 473.576 90.2491 476.401L71.908 487.06C71.9158 484.235 69.9289 480.792 67.4697 479.372Z" fill="#CEA702"/>
<path d="M67.4699 479.373C69.9291 480.792 71.916 484.234 71.9082 487.06L71.8848 495.212C71.877 498.038 69.8771 499.178 67.4179 497.758L17.0994 468.707C14.6402 467.287 12.6533 463.845 12.6612 461.02L12.6846 452.868C12.6924 450.042 14.6923 448.902 17.1515 450.322L67.4699 479.373Z" fill="#FCD500"/>
<path d="M14.0688 419.96L32.41 409.301C33.2193 408.83 34.3409 408.896 35.5783 409.611L17.2372 420.27C15.9998 419.557 14.8782 419.49 14.0688 419.96Z" fill="#CEA702"/>
<path d="M89.0116 457.359L70.6704 468.018C71.4693 467.554 71.9651 466.566 71.969 465.162L90.3101 454.503C90.3075 455.907 89.8118 456.894 89.0116 457.359Z" fill="#CEA702"/>
<path d="M71.9928 457.009L90.334 446.352L90.3119 454.503L71.9707 465.161L71.9928 457.009Z" fill="#B7881F"/>
<path d="M17.2373 420.271L35.5772 409.612L85.8956 438.663L67.5545 449.322L17.2373 420.271Z" fill="#B7881F"/>
<path d="M67.5542 449.322L85.8954 438.663C88.3545 440.083 90.3414 443.526 90.3336 446.35L71.9925 457.009C72.0016 454.185 70.0134 450.742 67.5542 449.322Z" fill="#CEA702"/>
<path d="M67.5544 449.322C70.0136 450.741 72.0005 454.184 71.9927 457.009L71.9692 465.161C71.9614 467.987 69.9615 469.127 67.5024 467.707L17.1839 438.656C14.7247 437.237 12.7378 433.794 12.7456 430.969L12.769 422.817C12.7769 419.991 14.778 418.851 17.2359 420.272L67.5544 449.322Z" fill="#FCD500"/>
<path d="M622.752 643.227L681.668 608.989C684.248 607.49 684.235 605.067 681.65 603.574L653.183 587.14C650.598 585.647 646.415 585.647 643.834 587.146L584.918 621.385C582.349 622.877 582.362 625.3 584.948 626.792L613.415 643.227C616 644.72 620.182 644.72 622.752 643.227Z" fill="#D3D3D3"/>
<path d="M651.692 577.361L670.033 588.021C669.224 587.55 668.102 587.616 666.865 588.33L648.524 577.671C649.761 576.957 650.882 576.89 651.692 577.361Z" fill="#CEA702"/>
<path d="M613.434 636.074L595.093 625.415C594.291 624.949 593.794 623.957 593.791 622.552L612.132 633.211C612.136 634.618 612.633 635.608 613.434 636.074Z" fill="#CEA702"/>
<path d="M612.13 633.211L593.791 622.552L593.767 614.409L612.108 625.068L612.13 633.211Z" fill="#B7881F"/>
<path d="M616.547 617.381L598.206 606.722L648.524 577.671L666.865 588.33L616.547 617.381Z" fill="#B7881F"/>
<path d="M612.108 625.069L593.767 614.409C593.759 611.583 595.746 608.142 598.205 606.722L616.547 617.381C614.087 618.801 612.1 622.242 612.108 625.069Z" fill="#CEA702"/>
<path d="M666.865 588.33C669.324 586.911 671.324 588.051 671.332 590.877L671.355 599.019C671.363 601.845 669.376 605.296 666.917 606.716L616.599 635.767C614.14 637.186 612.14 636.037 612.132 633.211L612.108 625.069C612.101 622.242 614.087 618.801 616.547 617.381L666.865 588.33Z" fill="#FCD500"/>
<path d="M651.605 547.301L669.946 557.96C669.137 557.49 668.017 557.556 666.781 558.269L648.439 547.61C649.674 546.897 650.796 546.829 651.605 547.301Z" fill="#CEA702"/>
<path d="M613.344 606.017L595.003 595.358C594.204 594.893 593.708 593.905 593.705 592.501L612.046 603.161C612.05 604.565 612.545 605.552 613.344 606.017Z" fill="#CEA702"/>
<path d="M612.046 603.161L593.705 592.502L593.681 584.359L612.022 595.018L612.046 603.161Z" fill="#B7881F"/>
<path d="M616.461 587.32L598.12 576.663L648.438 547.61L666.779 558.269L616.461 587.32Z" fill="#B7881F"/>
<path d="M612.022 595.018L593.681 584.359C593.673 581.524 595.66 578.082 598.119 576.661L616.461 587.32C614.001 588.74 612.015 592.183 612.022 595.018Z" fill="#CEA702"/>
<path d="M666.779 558.27C669.238 556.85 671.238 557.99 671.246 560.825L671.27 568.968C671.277 571.794 669.29 575.235 666.831 576.655L616.513 605.706C614.054 607.126 612.054 605.986 612.046 603.16L612.022 595.017C612.015 592.182 614.002 588.74 616.461 587.321L666.779 558.27Z" fill="#FCD500"/>
<path d="M377.373 658.481L401.697 644.346C403.916 643.057 403.904 640.974 401.68 639.689L360.012 615.922C357.788 614.638 354.192 614.64 351.973 615.928L327.649 630.062C325.44 631.346 325.452 633.43 327.675 634.714L369.344 658.481C371.569 659.765 375.164 659.765 377.373 658.481Z" fill="#D3D3D3"/>
<path d="M349.822 625.488L368.163 614.829C369.597 613.997 371.583 614.114 373.773 615.378L355.432 626.037C353.24 624.773 351.255 624.656 349.822 625.488Z" fill="#D04D66"/>
<path d="M379.337 634.058L360.996 644.717C362.413 643.893 363.29 642.143 363.298 639.653C363.312 634.651 359.793 628.555 355.431 626.038L373.772 615.378C378.134 617.896 381.653 623.992 381.639 628.994C381.631 631.484 380.753 633.236 379.337 634.058Z" fill="#ED6482"/>
<path d="M355.431 626.038C359.793 628.555 363.313 634.651 363.298 639.653C363.284 644.665 359.742 646.683 355.381 644.165C351.027 641.652 347.509 635.557 347.523 630.545C347.536 625.543 351.078 623.524 355.431 626.038Z" fill="#FF8CA1"/>
<path d="M331.696 588.424L350.037 577.765C350.788 577.328 351.829 577.39 352.975 578.052L334.634 588.712C333.487 588.051 332.448 587.988 331.696 588.424Z" fill="#ED6482"/>
<path d="M397.597 620.826L379.256 631.485C379.998 631.054 380.458 630.137 380.462 628.834L398.803 618.175C398.798 619.476 398.339 620.394 397.597 620.826Z" fill="#ED6482"/>
<path d="M380.487 619.937L398.828 609.278L398.802 618.175L380.461 628.833L380.487 619.937Z" fill="#D04D66"/>
<path d="M334.634 588.711L352.975 578.052L394.72 602.155L376.379 612.813L334.634 588.711Z" fill="#D04D66"/>
<path d="M376.379 612.813L394.72 602.154C396.996 603.468 398.834 606.652 398.827 609.278L380.485 619.937C380.494 617.311 378.656 614.127 376.379 612.813Z" fill="#ED6482"/>
<path d="M376.379 612.813C378.655 614.127 380.493 617.311 380.486 619.937L380.461 628.834C380.453 631.45 378.603 632.514 376.327 631.2L334.582 607.098C332.306 605.784 330.46 602.586 330.466 599.971L330.491 591.073C330.499 588.447 332.357 587.399 334.633 588.713L376.379 612.813Z" fill="#FF8CA1"/>
<path d="M349.964 575.191L368.306 564.532C369.739 563.699 371.725 563.816 373.915 565.081L355.574 575.74C353.384 574.475 351.398 574.358 349.964 575.191Z" fill="#D04D66"/>
<path d="M379.48 583.76L361.139 594.42C362.556 593.596 363.433 591.846 363.441 589.356C363.455 584.354 359.935 578.258 355.574 575.74L373.915 565.081C378.276 567.599 381.796 573.695 381.782 578.696C381.774 581.187 380.897 582.938 379.48 583.76Z" fill="#ED6482"/>
<path d="M355.574 575.74C359.935 578.258 363.455 584.354 363.44 589.356C363.426 594.368 359.884 596.386 355.523 593.868C351.169 591.354 347.651 585.26 347.665 580.248C347.678 575.246 351.221 573.228 355.574 575.74Z" fill="#FF8CA1"/>
<path d="M518.422 534.846L547.374 518.021C550.014 516.485 550.001 514.005 547.355 512.478L504.81 488.106C502.163 486.578 497.882 486.578 495.241 488.112L466.289 504.938C463.659 506.465 463.673 508.946 466.32 510.474L508.865 534.846C511.512 536.375 515.793 536.374 518.422 534.846Z" fill="#D3D3D3"/>
<path d="M482.037 470.17L505.015 456.817C508.718 454.664 513.845 454.966 519.504 458.233L496.525 471.587C490.866 468.32 485.74 468.018 482.037 470.17Z" fill="#32C1CC"/>
<path d="M533.875 506.475L510.896 519.829C514.552 517.704 516.819 513.189 516.837 506.769C516.874 493.841 507.776 478.083 496.525 471.587L519.503 458.233C530.755 464.729 539.852 480.487 539.816 493.415C539.798 499.835 537.531 504.35 533.875 506.475Z" fill="#35B0BE"/>
<path d="M496.525 471.587C507.776 478.082 516.874 493.841 516.838 506.769C516.801 519.697 507.644 524.903 496.392 518.408C485.141 511.913 476.054 496.173 476.09 483.244C476.128 470.316 485.275 465.092 496.525 471.587Z" fill="#61D8E8"/>
<path d="M328.558 219.469L366.944 198.045C369.382 196.672 369.37 194.454 366.926 193.086L340.03 178.036C337.587 176.668 333.636 176.669 331.198 178.041L292.812 199.466C290.385 200.833 290.397 203.051 292.84 204.419L319.736 219.469C322.179 220.837 326.131 220.837 328.558 219.469Z" fill="#D3D3D3"/>
<path d="M324.449 213.034L302.874 200.882L302.774 166.35L324.349 178.502L324.449 213.034Z" fill="#B7881F"/>
<path d="M324.349 178.502L302.774 166.35L333.781 149L355.356 161.151L324.349 178.502Z" fill="#CEA702"/>
<path d="M355.356 161.151L355.458 195.683L324.449 213.034L324.349 178.502L355.356 161.151Z" fill="#FCD500"/>
<path d="M117.3 111.396L141.008 97.6184C143.171 96.3615 143.159 94.3304 140.991 93.08L106.153 73.1215C103.985 71.8698 100.48 71.8698 98.3172 73.1267L74.6075 86.9047C72.454 88.1564 72.4657 90.1875 74.6335 91.4379L109.473 111.396C111.641 112.648 115.146 112.648 117.3 111.396Z" fill="#D3D3D3"/>
<path d="M112.785 73.8761L131.126 63.2183L131.04 93.5067L112.699 104.166L112.785 73.8761Z" fill="#B7881F"/>
<path d="M86.4248 58.6578L104.766 48L131.126 63.2184L112.785 73.8762L86.4248 58.6578Z" fill="#CEA702"/>
<path d="M112.785 73.8761L112.699 104.166L86.3389 88.9474L86.4247 58.6577L112.785 73.8761Z" fill="#FCD500"/>
</svg>
